<svg class="jsx-2263963463 artboard"><svg viewBox="-230.60422953002148 -96 670.0245193850939 200" xmlns="http://www.w3.org/2000/svg" xmlns:xlink="http://www.w3.org/1999/xlink" version="1.1" class="jsx-2263963463 artboard-inner" style="width: 204px; height: 60.8933px; max-height: 100%;"><g transform="translate(-3.333333333333333 35.55072463768114) scale(2.012882447665056)" fill="#FFFFFF"><g id="line1"><path d="M1.656-14.400C1.656-5.760 8.928 0.720 17.136 0.720C22.320 0.720 26.064-1.296 28.728-5.328C29.232-6.048 28.872-6.768 28.224-7.344L23.904-11.088C23.472-11.448 22.824-11.304 22.320-10.800C21.168-9.648 19.944-8.568 17.424-8.568C14.256-8.568 11.808-11.160 11.808-14.400C11.808-17.568 14.400-20.232 17.568-20.232C19.224-20.232 20.736-19.440 21.744-18.360C22.104-18.000 22.968-17.856 23.328-18.216L27.648-22.320C28.296-22.896 28.512-23.688 28.008-24.336C25.272-27.648 21.744-29.520 17.208-29.520C9.000-29.520 1.656-22.896 1.656-14.400Z"></path><path d="M31.680-1.368C31.680-0.648 32.328 0 33.048 0L40.608 0C41.616 0 41.904-0.720 41.904-1.368L41.904-15.192C41.904-18.144 44.496-20.232 47.376-20.232C50.616-20.232 52.272-17.712 52.272-14.832L52.272-1.368C52.272-0.648 52.848 0 53.640 0L61.344 0C62.064 0 62.712-0.648 62.712-1.368L62.712-14.472C62.712-22.680 57.960-29.520 49.032-29.520C43.776-29.520 40.464-26.784 38.880-25.056L37.728-27.936C37.512-28.440 36.864-28.800 36.432-28.800L33.048-28.800C32.328-28.800 31.680-28.224 31.680-27.432Z"></path><path d="M77.184 0C77.400 0.360 77.976 0.720 78.408 0.720L78.768 0.720C79.200 0.720 79.776 0.360 79.992 0L93.672-26.856C94.176-27.792 93.528-28.800 92.448-28.800L85.176-28.800C84.168-28.800 83.664-28.872 83.232-28.008L78.696-18.216C78.624-18.216 78.552-18.216 78.480-18.216L74.232-28.008C74.016-28.440 73.440-28.800 72.936-28.800L64.872-28.800C63.792-28.800 63.144-27.792 63.648-26.856Z"></path><path d="M95.472-1.368C95.472-0.648 96.120 0 96.840 0L104.184 0C105.336 0 105.768-0.504 105.768-1.368L105.768-16.272C105.768-18.720 107.424-20.376 109.584-20.376C110.232-20.376 110.952-20.160 111.312-20.016C112.104-19.728 112.608-20.160 112.896-20.664L116.424-26.424C117.432-28.080 114.624-29.520 110.664-29.520C106.920-29.520 104.256-26.856 102.816-24.768L101.520-27.936C101.304-28.368 101.016-28.800 100.224-28.800L96.840-28.800C96.120-28.800 95.472-28.224 95.472-27.432Z"></path><path d="M116.856-1.656C118.296-0.504 121.896 0.720 126.648 0.720C134.784 0.720 138.816-3.384 138.816-8.424C138.816-14.184 134.784-16.488 128.952-18.504C126.504-19.368 125.712-20.088 125.712-20.808C125.712-21.600 126.360-21.816 127.296-21.816C130.104-21.816 133.416-20.160 133.416-20.160C133.992-19.944 134.712-20.160 134.928-20.592L137.592-25.488C138.024-26.208 137.520-26.856 136.872-27.288C135.288-28.296 131.832-29.520 127.296-29.520C119.520-29.520 116.064-25.632 116.064-20.808C116.064-16.344 118.512-13.104 124.128-11.160C127.800-9.864 128.232-8.856 128.232-8.136C128.232-7.272 127.584-6.840 126.864-6.840C123.768-6.840 120.384-8.712 120.384-8.712C119.808-9.000 119.088-8.568 118.872-8.136L116.352-3.168C115.992-2.520 116.352-2.088 116.856-1.656Z"></path><path d="M147.384-37.512C150.552-37.512 153.144-40.032 153.144-43.200C153.144-46.368 150.552-48.960 147.384-48.960C144.216-48.960 141.696-46.368 141.696-43.200C141.696-40.032 144.216-37.512 147.384-37.512ZM142.128-1.368C142.128-0.648 142.776 0 143.496 0L151.416 0C152.136 0 152.784-0.648 152.784-1.368L152.784-27.432C152.784-28.224 152.136-28.800 151.416-28.800L143.496-28.800C142.776-28.800 142.128-28.224 142.128-27.432Z"></path><path d="M155.880-14.472C155.880-6.192 162.648 0.720 170.856 0.720C179.064 0.720 185.832-6.192 185.832-14.472C185.832-22.608 179.064-29.520 170.856-29.520C162.648-29.520 155.880-22.608 155.880-14.472ZM165.168-14.472C165.168-17.640 167.688-20.232 170.856-20.232C174.024-20.232 176.544-17.640 176.544-14.472C176.544-11.232 174.024-8.568 170.856-8.568C167.688-8.568 165.168-11.232 165.168-14.472Z"></path><path d="M188.928-1.368C188.928-0.648 189.576 0 190.296 0L197.856 0C198.864 0 199.152-0.720 199.152-1.368L199.152-15.192C199.152-18.144 201.744-20.232 204.624-20.232C207.864-20.232 209.520-17.712 209.520-14.832L209.520-1.368C209.520-0.648 210.096 0 210.888 0L218.592 0C219.312 0 219.960-0.648 219.960-1.368L219.960-14.472C219.960-22.680 215.208-29.520 206.280-29.520C201.024-29.520 197.712-26.784 196.128-25.056L194.976-27.936C194.760-28.440 194.112-28.800 193.680-28.800L190.296-28.800C189.576-28.800 188.928-28.224 188.928-27.432Z"></path></g></g><g transform="translate(-230.60422953002148 -95.99999669633387) scale(3.1401023182906433)" id="logomark"><g fill="#FFFFFF"><path d="M63.383.076A.977.977 0 0 0 63 .009V0H26a.996.996 0 0 0-.707.293L13.294 12.292A.998.998 0 0 0 13 13v25a1 1 0 0 0 1 1h37a.998.998 0 0 0 .708-.294l11.999-11.999A.996.996 0 0 0 64 26V1a.999.999 0 0 0-.617-.924zM50.586 12H40.414l10-10h10.172l-10 10zm-3-10L37.293 12.293A.996.996 0 0 0 37 13v9.132l-1.445-.964a.995.995 0 0 0-1.109 0L32 22.798l-2.445-1.63a1 1 0 0 0-1.11 0L27 22.132v-8.718L38.414 2h9.172zM26.414 2h9.172l-10 10h-9.172l10-10zM50 37H15V14h10v10a1 1 0 0 0 1.554.832L29 23.202l2.445 1.63a.995.995 0 0 0 1.109 0L35 23.202l2.445 1.63a1.004 1.004 0 0 0 1.027.05A1 1 0 0 0 39 24V14h11v23zm12-11.414l-10 10V13.414l10-10v22.172zM19 59a1 1 0 0 0 1-1h2.764l10.691 5.346a3.263 3.263 0 0 0 3.108-.099L58.379 50.52A3.277 3.277 0 0 0 60 47.698c0-.967-.425-1.879-1.165-2.502a3.265 3.265 0 0 0-2.663-.719L36.34 47.926l-5.633-5.633A.996.996 0 0 0 30 42H20a1 1 0 0 0-1-1H0v2h14v14H0v2h19zm10.586-15l7.879 7.879a1.83 1.83 0 0 1-2.586 2.586l-5.172-5.172-1.414 1.414 5.172 5.172A3.802 3.802 0 0 0 36.172 57 3.833 3.833 0 0 0 40 53.172a3.804 3.804 0 0 0-1.121-2.707l-.81-.81 18.444-3.208c.373-.067.747.037 1.034.279a1.266 1.266 0 0 1-.176 2.066L35.556 61.519c-.37.216-.821.23-1.206.038l-10.902-5.451A.997.997 0 0 0 23 56h-3V44h9.586zM18 57h-2V43h2v14zM9 9a1 1 0 1 0 2 0c0-1.654 1.346-3 3-3a1 1 0 1 0 0-2c-1.654 0-3-1.346-3-3a1 1 0 1 0-2 0c0 1.654-1.346 3-3 3a1 1 0 1 0 0 2c1.654 0 3 1.346 3 3zm1-5.003c.285.38.623.718 1.003 1.003-.38.285-.718.623-1.003 1.003A5.017 5.017 0 0 0 8.997 5c.38-.285.718-.623 1.003-1.003z"></path></g></g></svg></svg>